<svg width="47" height="30" viewBox="0 0 47 30" fill="none" xmlns="http://www.w3.org/2000/svg">
<rect width="47" height="30" fill="white"/>
<path fill-rule="evenodd" clip-rule="evenodd" d="M34.4234 20.0443C31.4907 22.1888 27.2392 23.329 23.5778 23.329C18.4465 23.329 13.8259 21.4495 10.3295 18.3216C10.0551 18.0758 10.2996 17.7404 10.6298 17.9309C14.402 20.1057 19.0672 21.4157 23.8857 21.4157C27.1361 21.4157 30.7091 20.7476 33.9971 19.3658C34.4924 19.1567 34.9083 19.6888 34.4234 20.0443ZM35.6432 18.6639C36.0187 19.1401 35.2259 21.101 34.8721 21.9769C34.7648 22.2419 34.9947 22.3489 35.2371 22.148C36.81 20.8442 37.2169 18.1117 36.895 17.7169C36.5753 17.3256 33.825 16.9888 32.1462 18.1566C31.8878 18.336 31.9323 18.5845 32.2186 18.55C33.164 18.4382 35.2684 18.1877 35.6432 18.6639Z" fill="#FF9900"/>
<path fill-rule="evenodd" clip-rule="evenodd" d="M31.3973 15.1528L34.4499 7.45502C34.514 7.29903 34.5467 7.18929 34.5467 7.1251C34.5467 7.01536 34.4819 6.96014 34.3524 6.96014H33.5756C33.4273 6.96014 33.3263 6.98361 33.2698 7.02917C33.2141 7.07541 33.1591 7.17618 33.1033 7.33216L31.2301 12.6654L29.288 7.33216C29.2322 7.17618 29.1772 7.07541 29.1215 7.02917C29.0657 6.98361 28.964 6.96014 28.8157 6.96014H27.9832C27.8536 6.96014 27.7888 7.01536 27.7888 7.1251C27.7888 7.18929 27.8209 7.29903 27.8857 7.45502L30.5635 13.9981L30.3001 14.6994C30.1427 15.1397 29.9672 15.442 29.7728 15.607C29.5785 15.772 29.3054 15.8541 28.9543 15.8541C28.7968 15.8541 28.6722 15.8444 28.5802 15.8265C28.4875 15.8085 28.4179 15.7989 28.3719 15.7989C28.2333 15.7989 28.1636 15.8858 28.1636 16.0598V16.4173C28.1636 16.5457 28.1866 16.6395 28.2333 16.6989C28.2793 16.7583 28.3531 16.8024 28.4555 16.8293C28.6861 16.8928 28.9501 16.926 29.2462 16.926C29.7735 16.926 30.2012 16.7886 30.5293 16.5132C30.8588 16.2392 31.1479 15.7851 31.3973 15.1528Z" fill="#232F3E"/>
<path fill-rule="evenodd" clip-rule="evenodd" d="M20.0021 8.852C19.8676 8.40751 19.6761 8.02928 19.426 7.718C19.1766 7.40672 18.8715 7.16791 18.5106 7.00295C18.1505 6.83799 17.7478 6.75586 17.3034 6.75586C16.8875 6.75586 16.48 6.83316 16.0829 6.98915C15.6851 7.14513 15.3104 7.37428 14.9586 7.67659L14.8896 7.23624C14.8617 7.05334 14.7551 6.96154 14.5698 6.96154H13.9596C13.775 6.96154 13.6824 7.05334 13.6824 7.23624V16.4877C13.6824 16.6713 13.775 16.7624 13.9596 16.7624H14.7781C14.9634 16.7624 15.0554 16.6706 15.0554 16.4877V13.2714C15.6566 13.8118 16.3734 14.0824 17.2058 14.0824C17.6586 14.0824 18.0703 13.9926 18.4403 13.8146C18.8102 13.6358 19.1243 13.3859 19.3835 13.065C19.6426 12.7447 19.8439 12.3555 19.9867 11.8965C20.1302 11.4382 20.202 10.9247 20.202 10.3566C20.2034 9.79827 20.1358 9.29649 20.0021 8.852ZM16.8875 12.9822C16.2578 12.9822 15.6475 12.7627 15.0561 12.3223V8.48758C15.6385 8.06586 16.2584 7.85535 16.9154 7.85535C18.1734 7.85535 18.8025 8.71258 18.8025 10.4257C18.8018 12.1305 18.1637 12.9822 16.8875 12.9822Z" fill="#232F3E"/>
<path fill-rule="evenodd" clip-rule="evenodd" d="M26.2584 7.29559C25.8418 6.93876 25.1947 6.76 24.3162 6.76C23.8815 6.76 23.4469 6.79934 23.0122 6.87664C22.5768 6.95463 22.2118 7.05747 21.9157 7.18585C21.8049 7.2321 21.7304 7.27972 21.6935 7.3301C21.6565 7.38049 21.6377 7.47021 21.6377 7.5979V7.96854C21.6377 8.1335 21.6976 8.21632 21.8182 8.21632C21.8551 8.21632 21.8948 8.20942 21.9366 8.19562C21.9784 8.18181 22.0132 8.17077 22.0404 8.16111C22.753 7.9506 23.4322 7.84499 24.0801 7.84499C24.6346 7.84499 25.0233 7.94576 25.2455 8.14799C25.4677 8.34953 25.5785 8.69739 25.5785 9.19227V10.0992C24.9313 9.94321 24.3483 9.86591 23.83 9.86591C23.0163 9.86591 22.3692 10.0654 21.8878 10.4636C21.4072 10.8619 21.1661 11.3961 21.1661 12.0649C21.1661 12.6888 21.3605 13.1851 21.7492 13.5564C22.1372 13.9277 22.6646 14.1127 23.3305 14.1127C23.7283 14.1127 24.1281 14.0347 24.5308 13.8794C24.9334 13.7241 25.3006 13.5033 25.6335 13.2196L25.7032 13.6731C25.7311 13.847 25.8328 13.934 26.009 13.934H26.6053C26.7899 13.934 26.8833 13.8422 26.8833 13.6593V8.95898C26.8826 8.20735 26.6743 7.65312 26.2584 7.29559ZM25.5785 12.3824C25.2734 12.6115 24.9543 12.7855 24.6214 12.9049C24.2884 13.0243 23.9693 13.0836 23.6642 13.0836C23.3034 13.0836 23.0261 12.9898 22.8317 12.802C22.6374 12.6143 22.5406 12.3465 22.5406 11.9979C22.5406 11.2008 23.063 10.8018 24.1079 10.8018C24.3483 10.8018 24.5956 10.8184 24.8498 10.8501C25.1041 10.8826 25.3472 10.9261 25.5785 10.9806V12.3824Z" fill="#232F3E"/>
</svg>
